# xmcd
#
# Track frame offsets: 
#        150
#        31655
#        54613
#        81248
#        102511
#        122400
#        139381
#        165339
#        189570
#        213722
#        239562
#        261341
#        293618
#        313975
#
# Disc length: 4425 seconds
#
# Revision: 0
# Processed by: cddbd v1.5.2PL0 Copyright (c) Steve Scherf et al.
# Submitted via: ExactAudioCopy v0.99pb3
#
DISCID=d011470e
DTITLE=Wallace Coleman - The Bad Weather Blues
DYEAR=2003
DGENRE=Blues
TTITLE0=Bad Weather Blues
TTITLE1=Pretty All Over
TTITLE2=Southern Comfort
TTITLE3=Better Way To Live
TTITLE4=Everybody Needs Somebody
TTITLE5=Standing Still
TTITLE6=Blue Mist
TTITLE7=Mean Red Spider
TTITLE8=Cloudy
TTITLE9=Billy Bob Jam
TTITLE10=Seems Like
TTITLE11=Old Fashioned Guy
TTITLE12=High Tech Blues
TTITLE13=Going Down Slow
EXTD=
EXTT0=
EXTT1=
EXTT2=
EXTT3=
EXTT4=
EXTT5=
EXTT6=
EXTT7=
EXTT8=
EXTT9=
EXTT10=
EXTT11=
EXTT12=
EXTT13=
PLAYORDER=
